<?xml version="1.0" standalone="no"?>
<!DOCTYPE svg PUBLIC "-//W3C//DTD SVG 20010904//EN"
    "http://www.w3.org/TR/2001/REC-SVG-20010904/DTD/svg10.dtd">
<svg version="1.0" xmlns="http://www.w3.org/2000/svg"
     width="512.000000pt" height="512.000000pt" viewBox="0 0 512.000000 512.000000"
     preserveAspectRatio="xMidYMid meet">

  <g transform="translate(0.000000,512.000000) scale(0.100000,-0.100000)"
     fill="#000000" stroke="none">
    <path d="M1225 5104 c-48 -18 -99 -65 -128 -119 -20 -37 -22 -57 -25 -277 l-4
-237 -347 -3 -346 -3 -67 -33 c-100 -49 -156 -124 -177 -237 -18 -91 -11
-3916 7 -3967 20 -59 75 -131 126 -165 99 -68 -71 -63 2296 -63 2369 0 2197
-5 2296 63 53 37 107 109 125 165 13 42 25 348 15 387 -15 58 -76 83 -121 49
-18 -14 -20 -30 -25 -197 -6 -197 -11 -216 -67 -270 -16 -15 -45 -32 -64 -37
-20 -6 -215 -10 -471 -10 l-438 0 0 500 0 500 518 -2 517 -3 3 -127 c3 -123 3
-128 29 -148 14 -11 32 -20 39 -20 26 0 62 23 73 47 15 34 16 3214 0 3298 -21
112 -85 195 -188 244 l-56 26 -341 3 -342 3 -6 40 c-11 69 -71 101 -121 63
-18 -14 -20 -30 -25 -200 l-5 -186 -28 -24 c-37 -31 -81 -31 -112 1 l-25 24 0
355 c0 239 4 363 11 379 22 48 83 60 124 24 22 -18 27 -34 32 -85 5 -51 10
-66 31 -82 29 -23 41 -24 76 -9 34 16 50 66 41 132 -9 64 -27 101 -73 149
-100 105 -277 82 -357 -46 l-30 -49 -3 -244 -3 -243 -79 0 -80 0 0 216 c0 131
-5 233 -12 262 -16 64 -96 146 -158 162 -102 27 -210 -15 -265 -104 l-30 -49
-3 -244 -3 -243 -80 0 -79 0 0 218 c0 123 -5 234 -11 257 -16 59 -57 113 -108
143 -38 22 -58 27 -116 27 -58 0 -78 -5 -116 -27 -51 -30 -92 -84 -108 -143
-6 -23 -11 -134 -11 -257 l0 -218 -79 0 -80 0 -3 243 -3 244 -30 49 c-55 89
-163 131 -265 104 -62 -16 -142 -98 -158 -162 -7 -29 -12 -131 -12 -262 l0
-216 -80 0 -80 0 0 230 c0 184 -3 238 -15 267 -52 124 -178 182 -300 137z
m118 -145 c14 -6 30 -22 36 -36 7 -16 11 -140 11 -379 l0 -355 -25 -24 c-31
-32 -75 -32 -112 -1 l-28 24 0 367 0 367 28 24 c31 26 54 30 90 13z m648 -18
l29 -29 0 -352 c0 -248 -3 -358 -12 -373 -27 -52 -80 -62 -125 -23 l-28 24 0
367 0 367 28 24 c38 32 72 31 108 -5z m630 0 l29 -29 0 -355 0 -355 -26 -31
c-19 -23 -34 -31 -59 -31 -25 0 -40 8 -59 31 l-26 31 0 355 0 355 29 29 c18
17 40 29 56 29 16 0 38 -12 56 -29z m626 5 l28 -24 0 -367 0 -367 -28 -24
c-45 -39 -98 -29 -125 23 -9 15 -12 125 -12 373 l0 352 29 29 c36 36 70 37
108 5z m-2177 -698 c0 -55 6 -85 24 -123 85 -184 343 -183 427 0 13 28 19 64
19 118 l0 77 80 0 80 0 0 -66 c0 -88 16 -136 62 -188 87 -99 240 -105 337 -13
52 49 71 100 71 190 l0 77 80 0 80 0 0 -67 c0 -92 13 -132 60 -186 95 -107
255 -107 350 0 47 54 60 94 60 186 l0 67 80 0 80 0 0 -77 c0 -90 19 -141 71
-190 97 -92 250 -86 337 13 46 52 62 100 62 188 l0 66 80 0 80 0 0 -77 c1
-117 41 -187 134 -235 47 -24 136 -27 186 -6 96 40 141 113 148 236 l5 82 306
0 c180 0 321 -4 343 -10 48 -14 97 -55 114 -97 11 -24 14 -95 14 -288 l0 -255
-2280 0 -2280 0 0 258 c0 247 1 258 23 296 26 47 62 75 108 86 19 4 175 8 347
9 l312 1 0 -72z m235 -1248 l0 -515 -515 0 -515 0 -3 505 c-1 278 0 511 3 518
3 10 112 12 517 10 l513 -3 0 -515z m1175 0 l0 -520 -510 0 -510 0 0 520 0
520 510 0 510 0 0 -520z m1180 0 l0 -520 -60 0 -60 0 0 55 c0 127 -46 239
-132 324 l-54 53 28 55 c53 106 33 236 -51 322 -137 141 -375 96 -459 -88 -33
-71 -28 -175 10 -244 l26 -45 -53 -52 c-29 -29 -65 -74 -79 -100 -31 -57 -56
-157 -56 -227 l0 -53 -40 0 -40 0 0 520 0 520 510 0 510 0 0 -520z m881 322
c-112 -108 -210 -201 -218 -205 -18 -11 -29 -2 -254 216 l-193 187 435 0 434
0 -204 -198z m309 -328 l0 -405 -24 18 c-12 10 -109 102 -215 203 l-192 185
208 202 c114 111 211 203 216 203 4 0 7 -183 7 -406z m-834 182 l186 -179
-187 -181 c-104 -100 -192 -182 -196 -184 -5 -2 -9 161 -9 363 0 229 4 365 10
363 5 -1 93 -84 196 -182z m-795 5 c33 -33 39 -45 39 -82 0 -53 -28 -102 -69
-124 -113 -58 -234 63 -176 176 22 41 71 69 124 69 37 0 49 -6 82 -39z m1304
-496 l210 -204 -425 0 -425 0 210 204 c116 112 212 204 215 204 3 0 100 -92
215 -204z m-1234 79 c68 -67 91 -118 93 -207 l1 -72 -255 0 -255 0 2 70 c3 88
36 158 102 217 l48 43 107 -1 107 0 50 -50z m-1981 -622 c0 -207 1 -212 62
-227 22 -6 33 -1 58 23 l30 30 0 181 0 181 510 0 510 0 0 -515 0 -515 -509 0
-510 0 -3 199 c-3 179 -5 201 -22 220 -25 27 -79 28 -106 1 -19 -19 -20 -33
-20 -220 l0 -200 -520 0 -520 0 0 515 0 515 520 0 520 0 0 -188z m2350 -327
l0 -515 -510 0 -510 0 0 515 0 515 510 0 510 0 0 -515z m1190 0 l0 -515 -520
0 -520 0 0 515 0 515 520 0 520 0 0 -515z m-3540 -1165 l0 -500 -438 0 c-256
0 -451 4 -471 10 -39 11 -85 51 -109 95 -15 26 -17 81 -20 449 -2 230 -1 425
2 432 4 12 96 14 521 14 l515 0 0 -500z m1170 0 l0 -500 -45 0 -45 0 0 68 c0
133 -44 243 -135 332 l-54 53 18 26 c69 99 51 259 -40 349 -59 60 -103 77
-199 77 -98 0 -141 -18 -201 -82 -61 -64 -74 -97 -74 -193 0 -73 4 -91 26
-131 l26 -45 -57 -61 c-88 -94 -130 -201 -130 -333 l0 -60 -55 0 -55 0 0 500
0 500 510 0 510 0 0 -500z m1180 0 l0 -500 -510 0 -510 0 0 500 0 500 510 0
510 0 0 -500z m-1619 245 c41 -22 69 -71 69 -124 0 -37 -6 -49 -39 -82 -33
-34 -45 -39 -82 -39 -56 0 -87 16 -116 59 -74 110 49 247 168 186z m-48 -397
c26 0 56 3 66 7 28 8 115 -75 147 -142 21 -41 29 -75 32 -134 l5 -79 -259 2
-259 3 2 78 c4 102 26 152 100 222 51 50 61 55 88 49 16 -4 52 -7 78 -6z"/>
    <path d="M690 3420 c-116 -25 -225 -112 -282 -227 -31 -64 -33 -74 -33 -173 0
-97 2 -110 32 -173 78 -163 257 -259 430 -230 137 24 248 107 306 231 30 62
32 75 32 172 0 89 -4 113 -24 158 l-24 52 47 50 c50 53 57 84 29 119 -10 11
-32 24 -50 27 -28 5 -38 1 -80 -39 l-48 -46 -25 20 c-66 50 -215 79 -310 59z
m188 -165 c17 -8 32 -18 32 -22 0 -5 -33 -41 -73 -81 -64 -64 -75 -71 -87 -58
-16 20 -69 20 -98 0 -16 -11 -22 -25 -22 -52 0 -30 9 -47 49 -89 40 -44 54
-53 82 -53 30 0 47 13 141 107 59 59 110 104 114 100 14 -14 16 -118 4 -162
-15 -53 -77 -128 -129 -154 -167 -85 -371 41 -371 229 0 87 39 156 123 220 51
38 161 45 235 15z"/>
    <path d="M2987 2186 c-149 -62 -238 -176 -262 -336 -17 -114 39 -254 136 -345
83 -76 147 -99 274 -100 94 0 105 2 167 33 115 57 192 148 222 267 26 97 16
198 -27 281 l-16 31 45 44 c36 35 44 50 44 80 0 45 -25 69 -70 69 -27 0 -44
-9 -76 -41 l-42 -42 -31 22 c-90 64 -257 81 -364 37z m243 -142 c22 -9 40 -19
40 -23 0 -4 -33 -40 -74 -80 -72 -72 -74 -73 -97 -57 -33 23 -66 20 -94 -9
-41 -40 -33 -70 33 -137 38 -37 67 -58 82 -58 16 0 58 34 136 112 128 125 129
125 129 8 -2 -229 -293 -337 -445 -164 -18 21 -39 54 -48 73 -21 50 -20 137 1
193 21 55 97 129 149 145 51 17 143 15 188 -3z"/>
  </g>
</svg>
